<?xml version="1.0" encoding="utf-8"?>
<!-- Generator: Adobe Illustrator 26.0.1, SVG Export Plug-In . SVG Version: 6.00 Build 0)  -->
<svg version="1.1" id="Layer_1" xmlns="http://www.w3.org/2000/svg" xmlns:xlink="http://www.w3.org/1999/xlink" x="0px" y="0px"
	 viewBox="0 0 500 100" style="enable-background:new 0 0 500 100;" xml:space="preserve">
<style type="text/css">
	.st0{fill:none;}
	.st1{enable-background:new    ;}
	.st2{fill:#22D3EE;}
</style>
<rect x="-55.7" y="-150" class="st0" width="600" height="399.4"/>
<g class="st1">
	<path class="st2" d="M14.2,58.4C14.2,32.3,36.4,8,66.6,8c17.8,0,28.4,6.8,34.3,14.5L87.3,34.7c-4.9-5.4-11.5-9.7-22.1-9.7
		c-18,0-31.8,15.4-31.8,32.9C33.4,70.9,43,78,54.9,78c6.5,0,11.3-1.6,15-3.2l4-13.7H55.2l4.3-16H96L84.2,87
		c-8.3,4.7-17.9,7.9-30.5,7.9C34.5,94.9,14.2,83.5,14.2,58.4z"/>
	<path class="st2" d="M98.9,65.1c0-19.2,16.6-37.2,37.2-37.2c19.1,0,31,12.6,31,29.8c0,19.2-16.6,37.2-37.2,37.2
		C110.8,94.9,98.9,82.3,98.9,65.1z M149.2,58.2c0-9.4-5.6-14.6-13.9-14.6c-11.2,0-18.5,12-18.5,21.1c0,9.4,5.6,14.6,13.9,14.6
		C141.9,79.3,149.2,67.3,149.2,58.2z"/>
	<path class="st2" d="M174,58.4C174,32.3,196.2,8,226.5,8c17.8,0,28.4,6.8,34.3,14.5l-13.7,12.1c-4.9-5.4-11.5-9.7-22.1-9.7
		c-18,0-31.8,15.4-31.8,32.9c0,13.1,9.6,20.2,21.5,20.2c6.5,0,11.3-1.6,15-3.2l4-13.7h-18.6l4.3-16h36.5L244,87
		c-8.3,4.7-17.9,7.9-30.5,7.9C194.3,94.9,174,83.5,174,58.4z"/>
	<path class="st2" d="M258.8,65.1c0-19.2,16.6-37.2,37.2-37.2c19.1,0,31,12.6,31,29.8c0,19.2-16.6,37.2-37.2,37.2
		C270.6,94.9,258.8,82.3,258.8,65.1z M309,58.2c0-9.4-5.6-14.6-13.9-14.6c-11.2,0-18.5,12-18.5,21.1c0,9.4,5.6,14.6,13.9,14.6
		C301.7,79.3,309,67.3,309,58.2z"/>
	<path class="st2" d="M350,9.5h24.5c16.3,0,26.5,4.4,32.9,10.8c6.2,6.2,9.1,14.4,9.1,24.6c0,12.6-4.8,24.1-13.8,33.1
		c-10.1,10.1-24.6,15.5-44,15.5h-31.2L350,9.5z M360.8,76.8c11.2,0,21.4-3.5,28.1-10.2c5.4-5.4,8.4-12.8,8.4-21
		c0-5.8-1.8-10.2-4.9-13.3c-3.7-3.7-9.8-6.1-19.3-6.1h-9l-13.7,50.6H360.8z"/>
	<path class="st2" d="M418.2,65.1c0-19.2,16.6-37.2,37.2-37.2c19.1,0,31,12.6,31,29.8c0,19.2-16.6,37.2-37.2,37.2
		C430.1,94.9,418.2,82.3,418.2,65.1z M468.5,58.2c0-9.4-5.6-14.6-13.9-14.6c-11.2,0-18.5,12-18.5,21.1c0,9.4,5.6,14.6,13.9,14.6
		C461.2,79.3,468.5,67.3,468.5,58.2z"/>
</g>
</svg>
