<?xml version="1.0" encoding="utf-8"?>
<!-- Generator: Adobe Illustrator 26.0.1, SVG Export Plug-In . SVG Version: 6.00 Build 0)  -->
<svg version="1.1" id="Layer_1" xmlns="http://www.w3.org/2000/svg" xmlns:xlink="http://www.w3.org/1999/xlink" x="0px" y="0px"
	 viewBox="0 0 40 40" style="enable-background:new 0 0 40 40;" xml:space="preserve">
<style type="text/css">
	.st0{fill:#CBD5E1;}
</style>
<path class="st0" d="M18.6,30h3V18h-3V30z M20,14.3c0.5,0,0.9-0.2,1.2-0.5c0.3-0.3,0.5-0.7,0.5-1.1c0-0.5-0.2-0.9-0.5-1.2
	C20.9,11.2,20.5,11,20,11s-0.9,0.2-1.2,0.5c-0.3,0.3-0.5,0.7-0.5,1.2s0.2,0.8,0.5,1.1C19.1,14.1,19.5,14.3,20,14.3z M20,40
	c-2.8,0-5.3-0.5-7.8-1.6c-2.4-1-4.5-2.5-6.4-4.3s-3.2-3.9-4.3-6.4c-1-2.4-1.6-5-1.6-7.8s0.5-5.4,1.6-7.8c1-2.4,2.5-4.5,4.3-6.3
	s3.9-3.2,6.4-4.3c2.4-1,5-1.6,7.8-1.6s5.4,0.5,7.8,1.6s4.5,2.5,6.3,4.3s3.2,3.9,4.3,6.3s1.6,5,1.6,7.8s-0.5,5.3-1.6,7.8
	c-1,2.4-2.5,4.5-4.3,6.4c-1.8,1.8-3.9,3.2-6.4,4.3C25.4,39.5,22.8,40,20,40z M20,37c4.7,0,8.7-1.7,12-5s5-7.3,5-12.1
	s-1.6-8.7-4.9-12C28.8,4.7,24.7,3,20,3S11.3,4.6,8,7.9S3,15.3,3,20s1.7,8.7,5,12S15.3,37,20,37z"/>
</svg>
